<?xml version="1.0" encoding="UTF-8"?>
<svg version="1.1" xmlns="http://www.w3.org/2000/svg" width="512" height="512">
<path d="M0 0 C23.73509567 20.25870722 40.33849584 47.30010642 43.32421875 78.8828125 C45.55214259 114.04025666 36.02948762 145.40931704 12.88671875 172.1953125 C-7.67331179 194.19310741 -37.1096682 208.1317288 -67.1953125 209.16796875 C-101.23502096 209.83466701 -131.34944142 199.6044896 -156.37890625 176.2109375 C-179.86056189 152.40980356 -191.25292932 121.79386738 -191.09741211 88.69262695 C-190.50035423 61.63191474 -180.62226931 36.82043606 -163.67578125 15.8828125 C-163.14082031 15.20605469 -162.60585937 14.52929688 -162.0546875 13.83203125 C-158.36650609 9.32425397 -154.18148338 5.55952684 -149.67578125 1.8828125 C-148.43248047 0.84833984 -148.43248047 0.84833984 -147.1640625 -0.20703125 C-104.99712272 -33.67005599 -41.95227142 -34.44887404 0 0 Z M-81.8203125 -0.8359375 C-106.16548131 2.00569837 -128.60037139 13.197373 -144.67578125 31.8828125 C-160.18699979 51.8107848 -169.12452898 75.67747078 -166.2109375 101.15625 C-163.27247045 123.98966093 -154.04033369 142.70965833 -137.67578125 158.8828125 C-136.9590625 159.60984375 -136.24234375 160.336875 -135.50390625 161.0859375 C-123.09542141 172.93464107 -105.62759276 181.32342135 -88.67578125 183.8828125 C-87.97710937 183.99238281 -87.2784375 184.10195312 -86.55859375 184.21484375 C-62.307496 187.45120021 -38.74982302 180.98099067 -18.94140625 166.9453125 C-16.42809321 165.00959314 -14.04249998 162.99483467 -11.67578125 160.8828125 C-10.8559375 160.15707031 -10.03609375 159.43132812 -9.19140625 158.68359375 C7.60763041 142.90189006 18.25810802 119.98187834 19.32421875 96.8828125 C19.37578125 96.191875 19.42734375 95.5009375 19.48046875 94.7890625 C20.45293636 71.12568407 11.35600066 47.36854978 -4.55078125 30.0078125 C-23.30239393 10.32631884 -46.65456699 -0.70919421 -73.98828125 -1.4296875 C-76.61040476 -1.32099844 -79.20604505 -1.06976018 -81.8203125 -0.8359375 Z " fill="#000000" transform="translate(329.67578125,59.1171875)"/>
<path d="M0 0 C1.62538003 1.541266 3.25042238 3.08288825 4.875 4.625 C6.22379668 5.77714969 7.5776303 6.92344083 8.9375 8.0625 C39.51697869 34.85831094 59.15150122 76.36522227 62.875 116.625 C63.33641762 126.42185003 63.33641762 126.42185003 59.875 130.625 C56.99124925 133.61555633 54.01837813 134.31958631 49.90234375 134.6875 C46.59253629 134.58546355 44.55818839 133.4969919 41.875 131.625 C39.48232459 128.21960575 38.44050246 125.47989003 37.91796875 121.37109375 C37.70877808 119.85733154 37.70877808 119.85733154 37.49536133 118.31298828 C37.35251709 117.24032715 37.20967285 116.16766602 37.0625 115.0625 C33.45527472 90.76951573 25.23441996 68.66003358 10.875 48.625 C10.26881836 47.77760254 10.26881836 47.77760254 9.65039062 46.91308594 C-5.35162229 26.27078134 -24.77258957 9.8289359 -47.125 -2.375 C-47.74133301 -2.71337891 -48.35766602 -3.05175781 -48.99267578 -3.40039062 C-79.04673961 -19.67610938 -112.23984356 -27.59539386 -146.3125 -27.625 C-147.01508942 -27.62567474 -147.71767883 -27.62634949 -148.44155884 -27.62704468 C-182.4366282 -27.5755421 -215.20228222 -19.62891689 -245.125 -3.375 C-246.2903125 -2.76140625 -247.455625 -2.1478125 -248.65625 -1.515625 C-262.03318549 5.7754074 -274.13587157 15.09299006 -285.125 25.625 C-285.99253906 26.429375 -286.86007812 27.23375 -287.75390625 28.0625 C-312.725595 51.93301897 -328.59494939 85.40936682 -332.01269531 119.69799805 C-332.615498 125.11949463 -333.66156461 128.36591053 -337.125 132.625 C-340.11312362 134.97281141 -343.34411188 135.04325081 -347.09375 134.9453125 C-350.47929158 134.41143864 -352.56680448 132.81773902 -355.125 130.625 C-360.80921418 121.34809259 -355.7630251 104.80850343 -353.50683594 94.9140625 C-350.53280562 82.96599311 -346.55006628 71.67025906 -341.125 60.625 C-340.79661133 59.94518066 -340.46822266 59.26536133 -340.12988281 58.56494141 C-332.65333967 43.239093 -323.29121108 29.48098387 -311.51953125 17.13671875 C-309.56231032 15.08371213 -307.73287289 13.00469385 -305.9375 10.8125 C-302.67931662 6.98688019 -298.99044793 3.82399139 -295.125 0.625 C-294.37331543 -0.01115234 -294.37331543 -0.01115234 -293.60644531 -0.66015625 C-272.5741745 -18.41579463 -249.03215296 -31.29505107 -223.125 -40.375 C-222.08375977 -40.7460083 -222.08375977 -40.7460083 -221.02148438 -41.12451172 C-148.71289743 -66.57786104 -57.3314122 -52.03319894 0 0 Z " fill="#000000" transform="translate(403.125,343.375)"/>
</svg>
